<svg xmlns="http://www.w3.org/2000/svg" viewBox="0 0 120 132" width="120" height="132" role="img" aria-label="wcdraft">
  <defs>
    <linearGradient id="gold" x1="0" y1="1" x2="1" y2="0">
      <stop offset="0" stop-color="#6e4e00"/><stop offset=".55" stop-color="#8a6200"/><stop offset="1" stop-color="#a66f00"/>
    </linearGradient>
  </defs>
  <g fill="none" stroke="url(#gold)" stroke-width="3" stroke-linejoin="round">
    <rect x="14" y="8" width="92" height="116" rx="13"/>
    <line x1="14" y1="66" x2="106" y2="66" stroke-width="2"/>
    <rect x="42" y="8" width="36" height="15"/>
    <rect x="52" y="8" width="16" height="6"/>
    <rect x="42" y="109" width="36" height="15"/>
    <rect x="52" y="118" width="16" height="6"/>
  </g>
  <circle cx="55" cy="52" r="28" fill="none" stroke="url(#gold)" stroke-width="1.6" stroke-dasharray="3 5" opacity=".7"/>
  <g fill="url(#gold)">
    <circle cx="40" cy="34" r="4.2"/><circle cx="62" cy="28" r="4.2"/>
    <circle cx="32" cy="60" r="4.2"/><circle cx="57" cy="63" r="4.2"/><circle cx="49" cy="86" r="4.2"/>
  </g>
  <path d="M22 111 C 42 105, 63 92, 73 55" fill="none" stroke="url(#gold)" stroke-width="6" stroke-linecap="round"/>
  <path d="M81 41 L67 45 L74 58 Z" fill="url(#gold)"/>
  <circle cx="85" cy="38" r="11" fill="none" stroke="url(#gold)" stroke-width="3"/>
  <circle cx="85" cy="38" r="5" fill="url(#gold)"/>
</svg>
